<svg xmlns="http://www.w3.org/2000/svg" viewBox="0 0 512 512">
  <defs>
    <linearGradient id="g" x1="0" y1="0" x2="1" y2="1">
      <stop offset="0" stop-color="#1f5fd1"/><stop offset="1" stop-color="#0b7a8a"/>
    </linearGradient>
  </defs>
  <rect width="512" height="512" fill="url(#g)"/>
  <g transform="translate(256 268)">
    <rect x="-150" y="-140" width="300" height="270" rx="36" fill="#ffffff"/>
    <path d="M-150 -104a36 36 0 0 1 36-36h228a36 36 0 0 1 36 36v34h-300z" fill="#ffd166"/>
    <rect x="-96" y="-172" width="22" height="64" rx="11" fill="#ffffff"/>
    <rect x="74" y="-172" width="22" height="64" rx="11" fill="#ffffff"/>
    <rect x="-96" y="-172" width="22" height="64" rx="11" fill="none" stroke="#16213a" stroke-opacity=".12" stroke-width="4"/>
    <rect x="74" y="-172" width="22" height="64" rx="11" fill="none" stroke="#16213a" stroke-opacity=".12" stroke-width="4"/>
    <g fill="#c9d6ee">
      <rect x="-118" y="-46" width="56" height="40" rx="10"/><rect x="-28" y="-46" width="56" height="40" rx="10"/><rect x="62" y="-46" width="56" height="40" rx="10"/>
      <rect x="-118" y="14" width="56" height="40" rx="10"/><rect x="62" y="14" width="56" height="40" rx="10"/>
      <rect x="-118" y="74" width="56" height="34" rx="10"/><rect x="-28" y="74" width="56" height="34" rx="10"/>
    </g>
    <rect x="-28" y="14" width="56" height="40" rx="10" fill="#1f5fd1"/>
  </g>
</svg>
